<svg aria-hidden="true" style="position: absolute; width: 0; height: 0; overflow: hidden;" version="1.1" xmlns="http://www.w3.org/2000/svg" xmlns:xlink="http://www.w3.org/1999/xlink">
<defs>
<symbol id="icon-logo-mob" viewBox="0 0 31 32">
<path fill="#000" style="fill: var(--color1, #000)" d="M18.552 14.295l-1.749-4.008-0.382-0.264-0.447-0.142-0.604-0.163-0.711 0.305-0.473 0.264 1.79 4.007h2.578z"></path>
<path fill="#000" style="fill: var(--color1, #000)" d="M12.274 12.954l1.749 4.017 0.382 0.265 0.447 0.142 0.605 0.164 0.711-0.306 0.474-0.265-1.79-4.017h-2.578z"></path>
<path fill="#fff" style="fill: var(--color2, #fff)" d="M14.092 10.34l-2.716 3.925 2.716 0.030 1.963-3.955c0.138-0.405 0.569-0.169 0.767 0-0.847-1.554-2.174-0.648-2.731 0zM16.723 16.92l2.716-3.925-2.716-0.030-1.963 3.955c-0.138 0.405-0.569 0.169-0.767 0 0.847 1.554 2.174 0.648 2.731 0z"></path>
</symbol>
<symbol id="icon-logo-desk" viewBox="0 0 30 32">
<path fill="#000" style="fill: var(--color1, #000)" d="M18.821 14.656l-2.173-4.977-0.474-0.329-0.555-0.177-0.752-0.202-0.882 0.379-0.588 0.328 2.222 4.978h3.202z"></path>
<path fill="#000" style="fill: var(--color1, #000)" d="M11.023 12.991l2.173 4.99 0.473 0.329 0.555 0.177 0.752 0.203 0.882-0.38 0.588-0.329-2.222-4.99h-3.202z"></path>
<path fill="#fff" style="fill: var(--color2, #fff)" d="M13.281 9.744l-3.374 4.876 3.374 0.036 2.438-4.912c0.171-0.503 0.707-0.21 0.954 0-1.053-1.93-2.7-0.804-3.392 0zM16.55 17.917l3.374-4.876-3.374-0.036-2.438 4.912c-0.171 0.503-0.707 0.21-0.954 0 1.053 1.93 2.7 0.804 3.392 0z"></path>
</symbol>
<symbol id="icon-logo-tab" viewBox="0 0 30 32">
<path fill="#000" style="fill: var(--color1, #000)" d="M18.821 14.656l-2.173-4.977-0.474-0.329-0.555-0.177-0.752-0.202-0.882 0.379-0.588 0.328 2.222 4.978h3.203z"></path>
<path fill="#000" style="fill: var(--color1, #000)" d="M11.023 12.991l2.173 4.99 0.474 0.329 0.555 0.177 0.752 0.203 0.882-0.38 0.588-0.329-2.222-4.99h-3.202z"></path>
<path fill="#fff" style="fill: var(--color2, #fff)" d="M13.281 9.744l-3.374 4.876 3.374 0.036 2.438-4.912c0.171-0.503 0.707-0.21 0.954 0-1.053-1.93-2.7-0.804-3.392 0zM16.55 17.917l3.374-4.876-3.374-0.036-2.438 4.912c-0.171 0.503-0.707 0.21-0.954 0 1.053 1.93 2.7 0.804 3.392 0z"></path>
</symbol>
<symbol id="icon-mob-menu" viewBox="0 0 46 32">
<path fill="#fff" style="fill: var(--color1, #fff)" d="M0 2.274c0-1.257 1.019-2.274 2.274-2.274h18.309c1.256 0 2.274 1.018 2.274 2.274s-1.018 2.274-2.274 2.274v0h-18.309c-1.256 0-2.274-1.018-2.274-2.274v0zM0 16c0-1.257 1.019-2.274 2.274-2.274h41.166c1.256 0 2.274 1.018 2.274 2.274s-1.018 2.274-2.274 2.274h-41.166c-1.256 0-2.274-1.018-2.274-2.274v0zM2.274 27.451c-1.256 0-2.274 1.018-2.274 2.274s1.018 2.274 2.274 2.274h27.451c1.256 0 2.274-1.018 2.274-2.274s-1.018-2.274-2.274-2.274h-27.451z"></path>
</symbol>
<symbol id="icon-x" viewBox="0 0 32 32">
<path fill="none" stroke="#fff" style="stroke: var(--color2, #fff)" stroke-linejoin="round" stroke-linecap="round" stroke-miterlimit="4" stroke-width="1.7333" d="M24 8l-16 16M8 8l16 16"></path>
</symbol>
<symbol id="icon-heart" viewBox="0 0 32 32">
<path fill="none" stroke="#fff" style="stroke: var(--color2, #fff)" stroke-linejoin="round" stroke-linecap="round" stroke-miterlimit="4" stroke-width="2.6667" d="M27.787 6.147c-1.327-1.328-3.161-2.149-5.187-2.149s-3.859 0.821-5.187 2.149l-1.413 1.413-1.413-1.413c-1.327-1.327-3.161-2.148-5.187-2.148-4.051 0-7.335 3.284-7.335 7.335 0 2.026 0.821 3.859 2.148 5.187l11.787 11.787 11.787-11.787c1.328-1.327 2.149-3.161 2.149-5.187s-0.821-3.859-2.149-5.187l-0-0z"></path>
</symbol>
<symbol id="icon-modal-x" viewBox="0 0 32 32">
<path stroke-linejoin="round" stroke-linecap="round" stroke-miterlimit="4" stroke-width="1.7333" d="M24 8l-16 16M8 8l16 16"></path>
</symbol>
<symbol id="icon-youtube" viewBox="0 0 32 32">
<path fill="#fff" style="fill: var(--color2, #fff)" opacity="0.8" d="M24.24 6c-1.36-0.080-4.16-0.16-8.4-0.16h-0.56c-4.080 0-6.8 0.080-8.16 0.24-1.84 0.16-3.12 0.64-3.84 1.28-0.64 0.56-1.12 1.6-1.28 2.96-0.080 0.88-0.16 2.72-0.16 5.52v0.4c0 2.64 0.080 4.48 0.24 5.36 0.24 1.28 0.64 2.24 1.44 2.8 0.8 0.64 2.16 1.040 4.080 1.2 1.36 0.080 4.16 0.16 8.4 0.16h0.56c4.080 0 6.8-0.080 8.16-0.24 1.84-0.16 3.12-0.64 3.84-1.28 0.64-0.56 1.12-1.6 1.28-2.96 0.080-0.88 0.16-2.72 0.16-5.52v-0.4c0-2.64-0.080-4.48-0.24-5.36-0.24-1.28-0.64-2.24-1.44-2.8-0.8-0.64-2.16-1.040-4.080-1.2zM21.12 15.84l-8.8 5.28v-10.56l8.8 5.28z"></path>
</symbol>
<symbol id="icon-instagram" viewBox="0 0 32 32">
<path fill="#fff" style="fill: var(--color2, #fff)" opacity="0.8" d="M28.718 10.755c-0.016-1.134-0.233-2.212-0.617-3.207l0.021 0.063c-0.682-1.722-2.021-3.059-3.7-3.722l-0.044-0.015c-0.921-0.356-1.985-0.573-3.097-0.596l-0.010-0c-1.367-0.061-1.801-0.078-5.271-0.078-3.472 0-3.917 0-5.274 0.078-1.063 0.023-2.112 0.223-3.106 0.597-1.723 0.678-3.062 2.015-3.727 3.693l-0.015 0.044c-0.357 0.919-0.574 1.981-0.595 3.091l-0 0.009c-0.062 1.367-0.080 1.8-0.080 5.265 0 3.466 0 3.909 0.080 5.265 0.021 1.063 0.222 2.11 0.594 3.104 0.682 1.721 2.022 3.058 3.701 3.721l0.044 0.015c0.917 0.369 1.98 0.6 3.091 0.637l0.015 0c1.369 0.062 1.803 0.080 5.274 0.080 3.472 0 3.917 0 5.274-0.080 1.122-0.023 2.187-0.239 3.172-0.616l-0.064 0.022c1.722-0.68 3.061-2.016 3.727-3.693l0.016-0.044c0.374-0.993 0.575-2.040 0.595-3.103 0.062-1.366 0.080-1.799 0.080-5.266-0.002-3.465-0.002-3.905-0.082-5.264zM15.989 22.531c-0.002 0-0.004 0-0.006 0-3.625 0-6.563-2.937-6.566-6.561v-0c0.002-3.624 2.94-6.561 6.565-6.561 0.002 0 0.005 0 0.007 0h-0c3.629 0 6.571 2.937 6.571 6.56-0.003 3.625-2.942 6.562-6.567 6.562-0.002 0-0.003 0-0.005 0h0zM22.823 10.696c-0.845 0-1.53-0.685-1.53-1.53s0.685-1.53 1.53-1.53v0c0.012-0 0.027-0.001 0.042-0.001 0.845 0 1.53 0.685 1.53 1.53s-0.685 1.53-1.53 1.53c-0.015 0-0.029-0-0.044-0.001l0.002 0z"></path>
<path fill="#fff" style="fill: var(--color2, #fff)" opacity="0.8" d="M15.992 19.976c0.020 0 0.044 0.001 0.068 0.001 2.212 0 4.005-1.793 4.005-4.005s-1.793-4.005-4.005-4.005c-0.024 0-0.048 0-0.071 0.001l0.004-0c-2.182 0.038-3.937 1.816-3.937 4.004s1.755 3.966 3.933 4.004l0.004 0z"></path>
</symbol>
<symbol id="icon-facebook" viewBox="0 0 32 32">
<path fill="#fff" style="fill: var(--color2, #fff)" d="M19.52 4.64h0.96v3.6h-1.2c-0.48 0-0.96 0-1.2 0.24s-0.24 0.48-0.24 1.040v1.28h2.64v3.040h-2.64v13.2h-4.080v-13.28h-2.16v-3.040h2.16v-1.040c0-1.76 0.24-3.040 0.72-3.6 0.72-1.040 2.16-1.52 4.32-1.52 0.24 0.080 0.48 0.080 0.72 0.080z"></path>
</symbol>
<symbol id="icon-slider-right" viewBox="0 0 32 32">
<path fill="none" stroke="#fff" style="stroke: var(--color2, #fff)" stroke-linejoin="round" stroke-linecap="round" stroke-miterlimit="4" stroke-width="1.3333" d="M12 24l8-8-8-8"></path>
</symbol>
<symbol id="icon-slider-left" viewBox="0 0 32 32">
<path fill="none" stroke="#fff" style="stroke: var(--color2, #fff)" stroke-linejoin="round" stroke-linecap="round" stroke-miterlimit="4" stroke-width="1.3333" d="M20 24l-8-8 8-8"></path>
</symbol>
<symbol id="icon-close" viewBox="0 0 32 32">
<path d="M7.707 7.155c-0.169 0.093-0.456 0.379-0.537 0.536-0.046 0.092-0.073 0.201-0.073 0.316 0 0.1 0.021 0.196 0.058 0.282l-0.002-0.005c0.032 0.064 1.767 1.827 3.853 3.916l3.795 3.8-3.795 3.8c-2.087 2.091-3.821 3.852-3.853 3.916-0.036 0.083-0.056 0.18-0.056 0.282 0 0.103 0.021 0.201 0.059 0.29l-0.002-0.005c0.088 0.171 0.372 0.46 0.537 0.547 0.092 0.046 0.201 0.073 0.316 0.073 0.1 0 0.196-0.021 0.282-0.058l-0.005 0.002c0.064-0.032 1.827-1.767 3.916-3.853l3.8-3.795 3.8 3.795c2.091 2.087 3.852 3.821 3.916 3.853 0.082 0.035 0.177 0.056 0.278 0.056 0.115 0 0.224-0.027 0.32-0.075l-0.004 0.002c0.165-0.087 0.449-0.376 0.537-0.547 0.036-0.084 0.058-0.182 0.058-0.286 0-0.102-0.021-0.199-0.058-0.287l0.002 0.005c-0.032-0.064-1.767-1.825-3.853-3.916l-3.795-3.8 3.795-3.8c2.087-2.089 3.821-3.852 3.853-3.916 0.035-0.082 0.056-0.177 0.056-0.278 0-0.115-0.027-0.224-0.075-0.32l0.002 0.004c-0.142-0.219-0.325-0.399-0.539-0.533l-0.007-0.004c-0.084-0.036-0.182-0.058-0.286-0.058-0.102 0-0.199 0.021-0.287 0.058l0.005-0.002c-0.064 0.032-1.825 1.767-3.916 3.853l-3.8 3.795-3.8-3.795c-2.089-2.087-3.852-3.821-3.916-3.853-0.084-0.035-0.183-0.055-0.285-0.055-0.105 0-0.206 0.021-0.297 0.060l0.005-0.002z"></path>
</symbol>
<symbol id="icon-close" viewBox="0 0 32 32">
            <path d="M32 3.223l-3.223-3.223-12.777 12.777-12.777-12.777-3.223 3.223 12.777 12.777-12.777 12.777 3.223 3.223 12.777-12.777 12.777 12.777 3.223-3.223-12.777-12.777 12.777-12.777z"></path>
        </symbol>
</defs>
</svg>
